# xmcd CD database file
#
# Track frame offsets:
#	150
#	3617
#	19227
#	34677
#	56887
#	75090
#	93828
#	117238
#	138556
#	158593
#	181161
#	200983
#	222506
#	247228
#	272986
#	286112
#
# Disc length: 3945 seconds
#
# Revision: 1
# Processed by: cddbd v1.5PL3 Copyright (c) Steve Scherf et al.
# Submitted via: CDex 1.51
#
DISCID=e50f6710
DTITLE=EXILE - Styles Of Beyond
DYEAR=1900
DGENRE=Rock
TTITLE0=Intro
TTITLE1=ESCAPE
TTITLE2=Sand Castle
TTITLE3=Kiss you (Original MIX)
TTITLE4=Ring your Bell
TTITLE5=wishes
TTITLE6=羽１/２
TTITLE7=Distance "Orchestra Version"
TTITLE8=Release yourself
TTITLE9=Cross 〜 never say die 〜
TTITLE10=cant say words
TTITLE11=Guilty
TTITLE12=We will 〜 あの場所で 〜 (Original MIX)
TTITLE13=song for you
TTITLE14=S・O・B
TTITLE15=。
EXTD=
EXTT0=
EXTT1=
EXTT2=
EXTT3=
EXTT4=
EXTT5=
EXTT6=
EXTT7=
EXTT8=
EXTT9=
EXTT10=
EXTT11=
EXTT12=
EXTT13=
EXTT14=
EXTT15=
PLAYORDER=
